<?xml version="1.0" standalone="no"?><svg xmlns="http://www.w3.org/2000/svg" viewBox="0 0 1440 320"><path fill="#12b886" fill-opacity="1" d="M0,64L40,85.3C80,107,160,149,240,181.3C320,213,400,235,480,250.7C560,267,640,277,720,256C800,235,880,181,960,149.3C1040,117,1120,107,1200,122.7C1280,139,1360,181,1400,202.7L1440,224L1440,320L1400,320C1360,320,1280,320,1200,320C1120,320,1040,320,960,320C880,320,800,320,720,320C640,320,560,320,480,320C400,320,320,320,240,320C160,320,80,320,40,320L0,320Z"></path></svg>